<svg id="_002-instagram" data-name="002-instagram" xmlns="http://www.w3.org/2000/svg" width="87.409" height="87.426" viewBox="0 0 87.409 87.426">
  <path id="Path_9" data-name="Path 9" d="M87.636,25.7A31.946,31.946,0,0,0,85.6,15.1,22.4,22.4,0,0,0,72.812,2.306,32.028,32.028,0,0,0,62.206.274C57.526.051,56.041,0,44.171,0S30.815.051,26.153.256A31.955,31.955,0,0,0,15.547,2.288,21.332,21.332,0,0,0,7.793,7.344a21.525,21.525,0,0,0-5.038,7.737A32.031,32.031,0,0,0,.723,25.686C.5,30.366.449,31.852.449,43.722S.5,57.077.705,61.74A31.944,31.944,0,0,0,2.738,72.346,22.392,22.392,0,0,0,15.53,85.137,32.032,32.032,0,0,0,26.136,87.17c4.662.205,6.148.256,18.018.256s13.355-.051,18.018-.256a31.937,31.937,0,0,0,10.606-2.032A22.362,22.362,0,0,0,85.57,72.346,32.053,32.053,0,0,0,87.6,61.74c.2-4.663.256-6.148.256-18.018S87.841,30.366,87.636,25.7ZM79.763,61.4a23.963,23.963,0,0,1-1.5,8.112,14.5,14.5,0,0,1-8.3,8.3,24.048,24.048,0,0,1-8.112,1.5c-4.611.205-5.994.256-17.659.256s-13.065-.051-17.66-.256a23.95,23.95,0,0,1-8.112-1.5A13.453,13.453,0,0,1,13.4,74.549a13.592,13.592,0,0,1-3.262-5.021,24.052,24.052,0,0,1-1.5-8.112c-.205-4.611-.256-5.995-.256-17.66S8.425,30.69,8.63,26.1a23.95,23.95,0,0,1,1.5-8.112,13.288,13.288,0,0,1,3.28-5.022A13.571,13.571,0,0,1,18.433,9.7a24.064,24.064,0,0,1,8.112-1.5c4.611-.2,5.995-.256,17.659-.256,11.682,0,13.065.051,17.66.256a23.963,23.963,0,0,1,8.112,1.5A13.443,13.443,0,0,1,75,12.962a13.589,13.589,0,0,1,3.262,5.022,24.06,24.06,0,0,1,1.5,8.112c.2,4.611.256,5.994.256,17.659S79.968,56.787,79.763,61.4Zm0,0" transform="translate(-0.449 0)" fill="#fff"/>
  <path id="Path_10" data-name="Path 10" d="M147.408,124.5a22.459,22.459,0,1,0,22.459,22.459A22.464,22.464,0,0,0,147.408,124.5Zm0,37.027a14.568,14.568,0,1,1,14.568-14.568A14.571,14.571,0,0,1,147.408,161.527Zm0,0" transform="translate(-103.686 -103.237)" fill="#fff"/>
  <path id="Path_11" data-name="Path 11" d="M372.936,93.845a5.243,5.243,0,1,1-5.244-5.243A5.244,5.244,0,0,1,372.936,93.845Zm0,0" transform="translate(-300.624 -73.47)" fill="#fff"/>
</svg>
