<svg id="_003-linkedin-logo" data-name="003-linkedin-logo" xmlns="http://www.w3.org/2000/svg" width="80" height="79.659" viewBox="0 0 80 79.659">
  <g id="post-linkedin">
    <path id="Path_13" data-name="Path 13" d="M72,0H8A8.006,8.006,0,0,0,0,7.966V71.693a8.006,8.006,0,0,0,8,7.966H72a8.006,8.006,0,0,0,8-7.966V7.966A8.006,8.006,0,0,0,72,0ZM24,67.71H12V31.864H24ZM18,25.093a7.169,7.169,0,1,1,7.2-7.169A7.155,7.155,0,0,1,18,25.093ZM68,67.71H56V46.6a6,6,0,0,0-12,0V67.71H32V31.864H44v4.78a12.934,12.934,0,0,1,10-5.576,14.142,14.142,0,0,1,14,13.94Z" fill="#fff"/>
  </g>
</svg>
