<svg id="_004-facebook-app-logo" data-name="004-facebook-app-logo" xmlns="http://www.w3.org/2000/svg" width="78.467" height="78.467" viewBox="0 0 78.467 78.467">
  <path id="Path_12" data-name="Path 12" d="M74.134,0H4.331A4.33,4.33,0,0,0,0,4.332v69.8a4.333,4.333,0,0,0,4.331,4.333h37.58V48.081H31.686V36.237H41.911V27.5c0-10.133,6.188-15.654,15.229-15.654a84.81,84.81,0,0,1,9.136.465V22.906l-6.271,0c-4.916,0-5.864,2.337-5.864,5.765v7.56H65.869L64.335,48.076h-10.2V78.464H74.132a4.335,4.335,0,0,0,4.335-4.33V4.329A4.331,4.331,0,0,0,74.134,0Z" transform="translate(0 -0.001)" fill="#fff"/>
</svg>
