<svg id="Layer_1" data-name="Layer 1" xmlns="http://www.w3.org/2000/svg" viewBox="0 0 297.33 289.07"><defs><style>.cls-1{fill:#231f20;}.cls-2{fill:none;stroke:#231f20;stroke-miterlimit:10;stroke-width:3.8px;}</style></defs><circle class="cls-1" cx="125.21" cy="162.38" r="11.08"/><circle class="cls-1" cx="177.54" cy="138.64" r="11.08"/><path class="cls-2" d="M243.34,247.58A127.18,127.18,0,1,1,119.06,25.65"/><path class="cls-1" d="M243,247.64c-12.92,7.74-28.14,11.47-43.29,11.43a106.46,106.46,0,0,1-44-10.31,136.31,136.31,0,0,1-37.33-25.84,158.31,158.31,0,0,1-43.94-78.47,140.66,140.66,0,0,1-3.16-22.56,127.37,127.37,0,0,1,.63-22.77,116,116,0,0,1,4.8-22.25,99.75,99.75,0,0,1,9.42-20.68c7.88-12.94,19-24,32.37-30.94-1.58,1-3.18,2-4.73,3.05s-3.06,2.17-4.5,3.36a82.31,82.31,0,0,0-8.29,7.53A87.77,87.77,0,0,0,87.69,57.12c-7.35,13-11.43,27.57-12.88,42.32a136.7,136.7,0,0,0,3.09,44.21,159.42,159.42,0,0,0,42.94,76.7,137,137,0,0,0,36.08,25.74c13.34,6.46,27.93,10.62,42.82,11.12a87.27,87.27,0,0,0,22.2-1.91A85.56,85.56,0,0,0,243,247.64Z"/></svg>