<svg 
    version="1.1"
    id="vera-animation"
    xmlns="http://www.w3.org/2000/svg"
    xmlns:xlink="http://www.w3.org/1999/xlink"
    x="0px"
    y="0px"
    height="100%"
    width="100%"
    viewBox="0 0 612 792"
    style="enable-background: new 0 0 612 792;"
    xml:space="preserve"
    preserveAspectRatio="xMinYMin slice"
  >
<defs>
<style type="text/css">
      .st1 {
        fill: none;
        stroke: #ffffff;
        stroke-miterlimit: 10;
        stroke-dasharray: 1724px;
        stroke-dashoffset: 1724px;
        animation: line1 4s ease-in 0s both;
        -webkit-animation: line1 4s ease-in 0s both;
        -ms-animation: line1 4s ease-in 0s both;
        -mos-animation: line1 4s ease-in 0s both;
        -o-animation: line1 4s ease-in 0s both;
      }

      .st4 {
        fill: none;
        stroke: #ffffff;
        stroke-miterlimit: 10;
        stroke-dasharray: 258px;
        stroke-dashoffset: 258px;
        animation: line3 1s ease-out 4s both;
        -webkit-animation: line3 1s ease-out 4s both;
        -ms-animation: line3 1s ease-out 4s both;
        -mos-animation: line3 1s ease-out 4s both;
        -o-animation: line3 1s ease-out 4s both;
      }

      @keyframes line1 {
        to {
          stroke-dashoffset: 0;
        }
      }
      @-webkit-keyframes line1 {
        to {
          stroke-dashoffset: 0;
        }
      }
      @-ms-keyframes line1 {
        to {
          stroke-dashoffset: 0;
        }
      }
      @-mos-keyframes line1 {
        to {
          stroke-dashoffset: 0;
        }
      }
      @-o-keyframes line1 {
        to {
          stroke-dashoffset: 0;
        }
      }

      @keyframes line3 {
        to {
          stroke-dashoffset: 0;
        }
      }
      @-webkit-keyframes line3 {
        to {
          stroke-dashoffset: 0;
        }
      }
      @-ms-keyframes line3 {
        to {
          stroke-dashoffset: 0;
        }
      }
      @-mos-keyframes line3 {
        to {
          stroke-dashoffset: 0;
        }
      }
      @-o-keyframes line3 {
        to {
          stroke-dashoffset: 0;
        }
      }
    </style></defs><path class="st1" d="M111.42,76.85a33,33,0,0,0-1.9-3.1,28.06,28.06,0,0,0-2.7-3.4,23.33,23.33,0,0,0-4.5-3.6c-2.3-1.5-2.7-1.3-5.1-2.6-3.5-2-5.8-3.3-6.5-5.8-.4-1.4,0-2.9.8-6a35.9,35.9,0,0,1,2.4-6.4,39.93,39.93,0,0,1,3.2-6.1,39.66,39.66,0,0,1,5-6c3-3.1,4.6-4.7,6.5-5,2.1-.3,2.4.8,4.4.3,2.2-.5,2.5-2.2,5.3-4.3,1.5-1.1,3-1.6,6-2.7,3.7-1.4,5.6-2.1,7.5-1.6a7.36,7.36,0,0,1,4.1,3.1c2.1,2.7,2.6,6.5,1.6,7.2s-2.3-2-4.6-1.5c-1.2.2-1.2,1-3.5,2.7a44.69,44.69,0,0,1-4.3,2.6c-3.3,2-3.6,2.6-3.6,3,0,1.2,2.2,1.5,2.1,2.5s-1.6,1-2.8,2.1-1.5,2.5-1.5,7.8c0,6.5.7,6.6.2,9-.6,2.6-1.3,2.2-3.4,7-2,4.5-1.3,4.8-3.3,8.9-1.6,3.4-2.4,5.1-3.4,6.2s-2.1,2-1.9,2.9c.1.5.6.7,2.6,1.7a34.65,34.65,0,0,1,3.7,2.1,14.59,14.59,0,0,1,2,1.8c1.7,1.7,2.8,3.1,3.1,3.4,2.9,3.5,11.4,3.7,11.5,3.4s-7.9-2-15.3-1.5c-1.7.1-3.7.4-5,1.9-1.5,1.8-1.1,4.4-1,5.1a8.23,8.23,0,0,0,3.5,5.2c1.8,1.5,3,1.6,5.8,2.7,1.7.7,1.7.8,8.7,4.8,5.1,2.9,7.6,4.3,8.1,4.5,4.5,1.9,8.5,1.8,13,1.9,4.9.1,15.4.4,17.1-3.8,1-2.4-1.1-6.4-4.4-7.5-3.7-1.2-8.2,1.4-8.1,2.7.1,1.8,8.2,3.4,10.5.6,1.3-1.6.4-4.4,1.3-4.7.6-.2,1.3.9,1.8,1.6,3,3.8,9.6,6,13.3,4.2,2-1,1.8-2.4,4.7-3.7a13.62,13.62,0,0,1,4.2-1c4.8-.7,5.9.1,7.2-1s.4-2.6,2.2-5c1.5-2.1,2.8-1.7,3.7-3.3,1.1-2-.7-3.2-.8-7.6-.1-2.9.7-3.2.8-7.7a21.62,21.62,0,0,0-.2-4.5c-.6-4-2.3-4.7-3.8-8.8-1.4-3.9-.2-4.2-1.7-8.5a25.1,25.1,0,0,0-3.8-7.2c-1.9-2.6-5.1-6.8-9.1-7.3-8-1.2-17.7,12.6-17.1,13.2.2.2,4.4-3.6,12.9-11.2,2.6-2.3,4.7-4.2,5.4-7.3a11,11,0,0,0-.6-6.9c-.7-1.8-1.4-2.1-2.9-4.3-3.4-4.9-2.2-6.4-5-9.5a10.79,10.79,0,0,0-6.3-3.8c-1.9-.3-2.3.3-5.5.2a33,33,0,0,1-6.9-1.1c-4.7-1.1-5-1.8-6.9-1.5a8.39,8.39,0,0,0-5.7,3.7c-1.2,2-.2,3-1.6,5.3-1.2,2-2.2,1.8-3.2,3.7-.4.7-.4,1-.8,5.3-.4,3.8-.5,4.6-1.1,5.7-.7,1.3-1.2,1.4-2,2.6a10,10,0,0,0-1.2,6.4c.5,9.1-1.1,15.5,1.6,22.4a6.6,6.6,0,0,0,3.3,3.9c1.5.6,3.3.6,3.5,0s-2.1-1.3-3-3.6c-1-2.5.5-5.3,1-6.4a12.67,12.67,0,0,1,3.9-4.3c1.9-1.5,3-2.4,4.3-2.3,1.7.1,2,1.8,4.1,2.1,1.1.1,1.3-.2,2.8-.4a9.88,9.88,0,0,1,5.7,1,9.15,9.15,0,0,1,3.9,4.9c.8,2.3,0,2.6.7,5.4.9,4.2,3.1,5.5,2.2,7.3-.7,1.4-2.3,1.3-2.7,2.8-.3,1.2.6,1.7.6,3,.1,1.9-1.6,3.4-3.2,4.9a17.9,17.9,0,0,1-7.4,4.3,14.56,14.56,0,0,1-9.3-.2c-2.8-1.1-4.2-2.8-6.9-6a6.72,6.72,0,0,1-1.7-3.6c-.1-.7-.3-2.1.5-2.9,1.1-1.2,3.4-.5,4.4-.2,3.3,1,3.3,2.6,6.8,4.3a11.4,11.4,0,0,0,7.1,1.2,3.92,3.92,0,0,0,2.7-1.5c1-1.8-1.2-4.4-.7-4.7s2.4,1.9,2.7,1.7-2.6-4.1-1.8-4.9c.6-.7,3.2.8,3.4.5s-2.6-1.7-2.3-2.5c.2-.5,1.3-.3,1.4-.8s-1.1-1-1.6-2.1c-.9-1.9.9-4.5.4-4.7s-1.5,1.6-2.7,1.5-1.7-2.7-2.1-2.6.3,4.2-.4,4.5-2.9-5.2-4.3-4.8c-.6.2-1,1.4-.8,2.3.4,1.7,3,1.9,2.9,2.5s-3.7.6-3.8,1.1c0,.2.5.3,1.6.7s1.9.8,2,1.1c.4,1.3-4.4,4-4.2,4.3s3-2,4.7-1.1a3.51,3.51,0,0,1,1.3,1.9,3.22,3.22,0,0,1-.2,2.3c-.9,1.3-3.2,1.2-3.9,1.2a10.32,10.32,0,0,1-5.7-2.5c-2-1.5-2.1-2.3-3.8-2.9s-2,0-3.3-.6-2.1-1.7-3.3-3.7-1.9-3.1-2.1-4.8c-.2-1.4.6-2.6.7-6v-.2c0-2.2-.3-5.3-1.2-5.4-.5-.1-1,.7-1.8,2-1.6,2.7-2.8,4.6-2.6,6.8.1,1,.8,2.2,2.3,4.6,2,3.3,2.9,3.7,3.2,5.6.3,1.6-.3,1.7-.2,4,.1,2.1.7,2.7,1.3,5.2a26.77,26.77,0,0,1,.7,5.8c.1,4.4-1.1,5.5-.1,6.9,1.3,1.8,3.7.4,5.3,2.2,1.9,2.2-.2,6.1,1.4,6.9.5.3.8-.1,3.1-.5a18.8,18.8,0,0,1,3.3-.3c4-.2,7.8,3.4,8.4,4a14.17,14.17,0,0,1,4.4,7.4,15.3,15.3,0,0,1,0,6.5c-.3,1.1-1.6,6.3-6.4,9.3-3.3,2.1-6.7,2.2-10.1,2.3s-3.5-.6-7.2-.4c-4.6.2-6,1.3-7.2.3-1.6-1.2-.1-3.3-1.7-7.6-.2-.6-1.1-2-2.8-4.9-2.5-4.2-3-4.8-3.8-5.3-1.9-1.1-2.6-.2-4.8-1.3-1.5-.7-1.9-1.5-4.6-4.5s-3.9-4.4-4.3-4.6c-2.3-.8-16.6.8-20.1,4.5-.4.4-26.3,45.5-33.3,54.9-10.2,13.6-17,26.1-17.7,26.9-1.6,1.8-3,5.7-2.6,10,.2,2.2,1,4.3,5.4,9.4,8.3,9.8,11.9,10.3,13.5,16,.4,1.4,1.6,5.8-.7,9.8-.3.5-2.7,4.7-5.9,4.8-5.4,0-10.9-12.1-11.3-22.7-.1-3.6-.4-11.2,4.7-17.7,4.8-6.2,11.6-7.8,17-9.2,12.2-3,22.4-.3,29.1,1.6,5.8,1.6,19.1,5.5,29.3,17.1a16.68,16.68,0,0,1,3.9,14.9c-1.1,4.9-3.6,8-6,9.5-2.7,1.7-4.7,3-7.5,2.9-1.7,0-4-.5-11.9-7.7-4.3-3.8-6.5-6.3-11.4-9.8-3.4-2.5-5.3-3.4-7.5-3.1a5,5,0,0,0-4.3,4.6c-.2,2.5,2.5,2.2,7.3,7.4,3.3,3.6,5.5,8.5,5.6,12.6,0,1.8-.5,3-4,8.3-7.9,12.2-11.7,16.3-13.3,18-3.8,4-5.7,6-7.7,6.3-3.5.5-7.4-1.8-15-6.6-4.4-2.7-4.7-3.3-6.2-3.4-5.6-.4-10.3,6.9-13.3,11.6-3.1,4.9-7.6,11.8-6.1,20.2.4,2.2,1.1,6.1,4.4,8.9,2.8,2.4,7.3,3.8,11,2.4,3.9-1.4,3.8-4.6,8.7-9.6,1.2-1.2,5.6-5.7,11.7-7.4,7.4-2.2,14.2.7,18.5,2.5,6.8,2.8,7,5,18.8,12.4,5.7,3.6,8.6,5.4,12.6,6.9,9.9,3.8,21.3,4.4,22.2,2,.3-1-1.1-2.2-2.7-3.6-6.4-5.9-5-7.4-13.3-17.9-4.9-6.1-9.1-11.5-16.1-16.6a67.52,67.52,0,0,0-14.2-8"/><path class="st4" d="M122.92,326.25a79.63,79.63,0,0,1-8.4,5.3,110.18,110.18,0,0,1-17.7,7.9,74.62,74.62,0,0,1-14.8,3.9c-4.7.6-8.8.4-16.8,0-8.6-.5-14.8-.8-22.8-2.7-7-1.6-10.6-2.5-13.8-5-1.7-1.3-8.7-6.8-8.2-15.6.3-5.5,3.6-11.3,8.7-13.6,7.1-3.2,16.2,1.4,18.9,2.7,3.2,1.6,5.2,3.3,9.3,3.8a24.64,24.64,0,0,0,7.9-.8c4.8-1.1,6.1-2.4,9.2-3.3,4.3-1.3,8.9-1.3,16.2.4,8.7,2.1,14,6.1,15.3,6.7,14.8,6.6,18.2,10.8,20.4,12.8,9.3,8.4,15.3,4.8,15.8,6.4"/></svg>