<svg id="_004-facebook-app-logo" data-name="004-facebook-app-logo" xmlns="http://www.w3.org/2000/svg" width="40.332" height="40.332" viewBox="0 0 40.332 40.332">
  <path id="Path_39" data-name="Path 39" d="M38.1,0H2.226A2.226,2.226,0,0,0,0,2.227V38.106a2.227,2.227,0,0,0,2.226,2.227H21.542V24.714H16.286V18.626h5.256V14.137c0-5.209,3.18-8.046,7.828-8.046a43.592,43.592,0,0,1,4.7.239v5.444H30.842c-2.527,0-3.014,1.2-3.014,2.963v3.886h6.029l-.788,6.087H27.827v15.62H38.1a2.228,2.228,0,0,0,2.228-2.225V2.226A2.226,2.226,0,0,0,38.1,0Z" transform="translate(0 -0.001)" fill="#fff"/>
</svg>
