<svg id="Layer_1" data-name="Layer 1" xmlns="http://www.w3.org/2000/svg" viewBox="0 0 280.04 431.41"><defs><style>.cls-1{fill:none;stroke:#414141;stroke-miterlimit:10;stroke-width:3px;}</style></defs><path class="cls-1" d="M139.08,2.43c-.55.5-1.4,1.28-2.43,2.24a255.67,255.67,0,0,0-29.76,33.6c-20,26.23-29.75,39.48-41.42,58.9-4.5,7.48-8.09,15-17.83,34-22.24,43.29-36,70.18-42.43,110.46-2.89,18.26-6.3,41.1-.73,70.23,3.24,16.94,10.31,53.94,42.43,83.39a136.2,136.2,0,0,0,61.45,31.46c56.31,12.49,100.47-15.37,106.07-19,44.58-29.13,56.48-74.29,60-88.51,9.3-37.74,1.24-68.13-8-103.15-10.22-38.51-25.09-65.23-41.7-95.1-23.19-41.68-16.39-30.39-52.67-79A478.11,478.11,0,0,0,139.08,2.43Z"/><polygon class="cls-1" points="138.96 5.69 36.21 381.75 241.71 381.75 138.96 5.69"/><line class="cls-1" x1="90.63" y1="61.25" x2="277.08" y2="281.45"/><line class="cls-1" x1="224.61" y1="316.8" x2="276.39" y2="280.35"/><line class="cls-1" x1="75.24" y1="414.12" x2="106.46" y2="381.74"/><line class="cls-1" x1="137.24" y1="353.89" x2="106.46" y2="381.74"/><line class="cls-1" x1="137.24" y1="353.89" x2="224.61" y2="316.8"/><line class="cls-1" x1="115.81" y1="90.42" x2="46.76" y2="133.22"/><line class="cls-1" x1="187.48" y1="62.44" x2="2.36" y2="281.73"/><line class="cls-1" x1="162.58" y1="91.82" x2="230.07" y2="130.3"/><line class="cls-1" x1="232.85" y1="135.68" x2="221.85" y2="216.37"/><line class="cls-1" x1="221.69" y1="215.59" x2="209.9" y2="265.34"/><line class="cls-1" x1="209.62" y1="264.62" x2="186.31" y2="332.82"/><line class="cls-1" x1="165.4" y1="381.63" x2="186.97" y2="330.94"/><line class="cls-1" x1="137.62" y1="429.51" x2="165.4" y2="381.63"/><line class="cls-1" x1="109.78" y1="380.43" x2="139.09" y2="429.74"/><line class="cls-1" x1="45.14" y1="135.71" x2="53.46" y2="220.91"/><line class="cls-1" x1="53.31" y1="219.87" x2="66.23" y2="271.71"/><line class="cls-1" x1="66.23" y1="271.71" x2="109.29" y2="377.8"/><line class="cls-1" x1="2.36" y1="281.73" x2="52.53" y2="318.25"/><line class="cls-1" x1="54.29" y1="319.14" x2="91.92" y2="334.94"/><line class="cls-1" x1="91.92" y1="334.94" x2="137.84" y2="354.38"/><line class="cls-1" x1="165.79" y1="378.89" x2="137.24" y2="353.89"/><line class="cls-1" x1="198.39" y1="416.04" x2="166.61" y2="380.05"/></svg>