<svg id="_002-instagram" data-name="002-instagram" xmlns="http://www.w3.org/2000/svg" width="40.442" height="40.45" viewBox="0 0 40.442 40.45">
  <path id="Path_35" data-name="Path 35" d="M40.789,11.892a14.78,14.78,0,0,0-.94-4.907A10.362,10.362,0,0,0,33.93,1.067a14.819,14.819,0,0,0-4.907-.94C26.857.024,26.17,0,20.678,0S14.5.024,12.342.119a14.785,14.785,0,0,0-4.907.94A9.87,9.87,0,0,0,3.847,3.4a9.959,9.959,0,0,0-2.331,3.58,14.82,14.82,0,0,0-.94,4.907c-.1,2.165-.127,2.853-.127,8.345s.024,6.179.119,8.337a14.78,14.78,0,0,0,.941,4.907,10.36,10.36,0,0,0,5.918,5.918,14.82,14.82,0,0,0,4.907.94c2.157.1,2.845.119,8.337.119s6.179-.023,8.337-.119a14.777,14.777,0,0,0,4.907-.94,10.346,10.346,0,0,0,5.919-5.918,14.83,14.83,0,0,0,.94-4.907c.095-2.157.119-2.845.119-8.337S40.883,14.05,40.789,11.892ZM37.146,28.408a11.087,11.087,0,0,1-.7,3.753A6.71,6.71,0,0,1,32.61,36a11.126,11.126,0,0,1-3.753.7c-2.134.1-2.773.119-8.17.119s-6.045-.023-8.171-.119A11.081,11.081,0,0,1,8.762,36a6.224,6.224,0,0,1-2.323-1.509A6.289,6.289,0,0,1,4.93,32.169a11.128,11.128,0,0,1-.7-3.753c-.1-2.134-.119-2.774-.119-8.171s.023-6.045.119-8.17a11.081,11.081,0,0,1,.7-3.753A6.148,6.148,0,0,1,6.447,6,6.279,6.279,0,0,1,8.77,4.488a11.134,11.134,0,0,1,3.753-.7c2.134-.095,2.774-.119,8.17-.119s6.045.024,8.171.119a11.087,11.087,0,0,1,3.753.7A6.22,6.22,0,0,1,34.941,6a6.287,6.287,0,0,1,1.509,2.323,11.132,11.132,0,0,1,.7,3.753c.095,2.134.119,2.773.119,8.17S37.241,26.274,37.146,28.408Zm0,0" transform="translate(-0.449 0)" fill="#fff"/>
  <path id="Path_36" data-name="Path 36" d="M135.34,124.5a10.391,10.391,0,1,0,10.391,10.391A10.394,10.394,0,0,0,135.34,124.5Zm0,17.132a6.74,6.74,0,1,1,6.74-6.74A6.742,6.742,0,0,1,135.34,141.631Zm0,0" transform="translate(-115.111 -114.662)" fill="#fff"/>
  <path id="Path_37" data-name="Path 37" d="M367.3,91.027a2.426,2.426,0,1,1-2.426-2.426A2.426,2.426,0,0,1,367.3,91.027Zm0,0" transform="translate(-333.844 -81.6)" fill="#fff"/>
</svg>
