<svg id="_003-linkedin-logo" data-name="003-linkedin-logo" xmlns="http://www.w3.org/2000/svg" width="39.38" height="41.229" viewBox="0 0 39.38 41.229">
  <g id="post-linkedin">
    <path id="Path_38" data-name="Path 38" d="M35.442,0H3.938A4.046,4.046,0,0,0,0,4.123V37.106a4.046,4.046,0,0,0,3.938,4.123h31.5a4.046,4.046,0,0,0,3.938-4.123V4.123A4.046,4.046,0,0,0,35.442,0ZM11.814,35.044H5.907V16.492h5.907ZM8.861,12.987A3.615,3.615,0,0,1,5.316,9.276,3.615,3.615,0,0,1,8.861,5.566,3.615,3.615,0,0,1,12.4,9.276,3.615,3.615,0,0,1,8.861,12.987ZM33.473,35.044H27.566V24.119a3.1,3.1,0,0,0-2.954-3.092,3.1,3.1,0,0,0-2.954,3.092V35.044H15.752V16.492h5.907v2.474a6.3,6.3,0,0,1,4.923-2.886,7.146,7.146,0,0,1,6.892,7.215Z" fill="#fff"/>
  </g>
</svg>
