<svg id="mail" xmlns="http://www.w3.org/2000/svg" width="104.598" height="79.674" viewBox="0 0 104.598 79.674">
  <g id="Group_4" data-name="Group 4" transform="translate(0 0)">
    <path id="Path_14" data-name="Path 14" d="M95.4,61H9.193A9.209,9.209,0,0,0,0,70.193v61.288a9.208,9.208,0,0,0,9.193,9.193H95.4a9.208,9.208,0,0,0,9.193-9.193V70.193A9.208,9.208,0,0,0,95.4,61Zm-1.269,6.129L52.494,108.77l-42-41.642ZM6.129,130.212V71.433L35.645,100.7Zm4.334,4.333L40,105.011l10.349,10.26a3.064,3.064,0,0,0,4.324-.009l10.091-10.091,29.375,29.375Zm88.007-4.334L69.094,100.837,98.469,71.462Z" transform="translate(0 -61)" fill="#fff"/>
  </g>
</svg>
