<svg xmlns="http://www.w3.org/2000/svg" width="443.908" height="631.724" viewBox="0 0 443.908 631.724">
  <g id="VeraLOGO" transform="translate(-215.641 -215.928)">
    <g id="Group_1" data-name="Group 1" transform="translate(250.519 215.928)">
      <path id="Path_1" data-name="Path 1" d="M235.408,528.6c2.79-4.327,5.351-8.866,8.106-13.245q4.08-6.623,8.353-13.122t8.777-12.839c2.967-4.239,6.164-8.336,9.06-12.627,11.391-17.307,21.864-35.233,32.443-53.053l15.718-26.827,3.921-6.711,1.96-3.355.989-1.678a5.5,5.5,0,0,1,1.183-1.572,21.837,21.837,0,0,1,6.87-3.656,64.861,64.861,0,0,1,7.506-2.119,88.869,88.869,0,0,1,15.435-2.066,29.138,29.138,0,0,1,3.921.088,3.487,3.487,0,0,1,1.943.6,13.1,13.1,0,0,1,1.43,1.36c1.784,1.89,3.479,3.85,5.192,5.793s3.391,3.938,5.122,5.846a10.862,10.862,0,0,0,6.446,3.691,22.029,22.029,0,0,1,3.885.53,7.773,7.773,0,0,1,3.373,2.19,54.278,54.278,0,0,1,4.345,6.517l3.974,6.693a32.707,32.707,0,0,1,1.854,3.5,25.761,25.761,0,0,1,1.06,3.8,24.389,24.389,0,0,1,.406,3.921,19.687,19.687,0,0,0,.3,3.762,3.079,3.079,0,0,0,2.349,2.225,12.212,12.212,0,0,0,3.691-.318,43.268,43.268,0,0,1,15.594-.442,46.414,46.414,0,0,0,7.682.141,37.7,37.7,0,0,0,7.612-.936,22.664,22.664,0,0,0,12.557-8.089,28.024,28.024,0,0,0,5.846-13.9A24.291,24.291,0,0,0,451.451,388a25.882,25.882,0,0,0-4.68-5.969,33.38,33.38,0,0,0-6-4.7,18.38,18.38,0,0,0-6.994-2.649,15.787,15.787,0,0,0-3.762.018c-1.272.106-2.561.265-3.815.459a34.391,34.391,0,0,0-3.726.848,7.349,7.349,0,0,1-1.024.23,2,2,0,0,1-1.307-.23,2.708,2.708,0,0,1-1.307-2.013,20.135,20.135,0,0,1,.035-4.009,14.316,14.316,0,0,0-.159-3.709,5.073,5.073,0,0,0-1.678-2.967,5.882,5.882,0,0,0-3.285-1.148,10.965,10.965,0,0,1-3.991-.883,4.515,4.515,0,0,1-2.4-3.6,21.444,21.444,0,0,1,.424-3.991c.177-1.272.3-2.525.353-3.8a46.219,46.219,0,0,0-.371-7.647,43.153,43.153,0,0,0-1.607-7.488c-.371-1.219-.83-2.437-1.148-3.762a17.993,17.993,0,0,1-.477-3.991,19.853,19.853,0,0,1,.388-3.938,8.213,8.213,0,0,0-.495-3.5,14.918,14.918,0,0,0-1.89-3.179c-.742-1.06-1.5-2.137-2.208-3.232-1.413-2.225-2.773-4.38-4.044-6.729a8.3,8.3,0,0,1-1.166-4.009,11.675,11.675,0,0,1,.671-4.062,37.822,37.822,0,0,1,3.656-7.029c.689-1.095,1.325-2.208,2.155-3.32a4.691,4.691,0,0,1,.759-.83,1.838,1.838,0,0,1,1.5-.459,1.9,1.9,0,0,1,1.219.918,4.925,4.925,0,0,1,.495,1.024,26.788,26.788,0,0,1,1.024,7.947,39.079,39.079,0,0,1-.848,7.859,9.722,9.722,0,0,0-.265,3.585,12.173,12.173,0,0,0,1.077,3.5,74.067,74.067,0,0,0,3.832,6.64,14.428,14.428,0,0,0,2.261,2.9,6.675,6.675,0,0,0,3.02,1.589c1.007.194,2.543-.018,3.9.424a8.931,8.931,0,0,1,3.726,1.96c1.007.936,1.854,1.819,2.826,2.631.971.795,2.013,1.572,3.055,2.278a15.361,15.361,0,0,0,6.782,2.808,14.209,14.209,0,0,0,3.673,0,4.973,4.973,0,0,0,3.02-1.325,3.759,3.759,0,0,0,.724-3.055,6.043,6.043,0,0,0-1.272-3.144,2.948,2.948,0,0,0-2.9-.812,12.631,12.631,0,0,0-3.444,1.236c-.583.283-1.077.583-1.8.9.177.989-1.819-1.06-.989-1.307a3.152,3.152,0,0,1,.442-.424l.795-.618c1.042-.777,2.084-1.536,3.091-2.331a14.53,14.53,0,0,0,2.632-2.561c.353-.477.388-.918.3-.865a6.1,6.1,0,0,0-1.466-.812c-1.183-.53-2.331-1.024-3.55-1.466l-.494-.194c-.177-.159-.371,0-.759-.706-.053-1.148.618-1.042.706-1.183a5.035,5.035,0,0,1,.565-.177c.689-.159,1.342-.23,1.978-.318s1.272-.177,1.89-.283a4.863,4.863,0,0,0,1.519-.459c.053-.053-.053.035-.035.212.035.159.053.106-.018.053a5.855,5.855,0,0,0-.706-.406c-.565-.283-1.183-.547-1.784-.9a4.942,4.942,0,0,1-2.667-3.426,5.441,5.441,0,0,1,.159-2.208,3.6,3.6,0,0,1,1.289-2,1.745,1.745,0,0,1,1.5-.212,2.826,2.826,0,0,1,1.06.636,9.448,9.448,0,0,1,1.378,1.572c.795,1.095,1.448,2.208,2.137,3.32.336.547.671,1.095,1.024,1.625a5.663,5.663,0,0,0,1.077,1.307c.071.071.106.035-.018.035-.141.018-.177.141-.141.053a2.33,2.33,0,0,0,.159-.689,16.011,16.011,0,0,0,.035-1.854c-.035-1.289-.159-2.543-.124-3.938a3.369,3.369,0,0,1,.053-.565c.088-.212-.071-.406.495-.883,1.042-.318,1.148.406,1.254.441a3.473,3.473,0,0,1,.265.495c.283.618.512,1.2.795,1.748.547,1.095,1.342,2.013,2.208,1.784.954-.212,1.8-1.219,2.879-2.1a1.721,1.721,0,0,1,1.4-.459,1,1,0,0,1,.742.954,3.2,3.2,0,0,1-.071.653c-.177.706-.406,1.289-.6,1.907a9.985,9.985,0,0,0-.636,3.585,4.331,4.331,0,0,0,1.431,3.02c.441.441.936.795,1.448,1.378a2.068,2.068,0,0,1,.371.6,1.273,1.273,0,0,1-.035.918,1.78,1.78,0,0,1-1.113.9c-.353.124-.689.194-.954.283a.969.969,0,0,0-.441.212c-.106-.088.23.583.671.936.883.848,1.943,1.5,3.02,2.419.124.212.318.088.459.865-.689,1.183-.989.459-1.148.618-.389-.088-.689-.194-1.007-.283-.618-.212-1.219-.424-1.819-.6a6.555,6.555,0,0,0-1.731-.318c-.565.071-.512.035-.512.6a11.158,11.158,0,0,0,1.378,3.356c.6,1.148,1.289,2.19,1.872,3.461a3.208,3.208,0,0,1,.194.583c.371.124-.53,1.325-.954.936a3.543,3.543,0,0,1-1.024-.618c-.53-.424-1.024-.848-1.5-1.254a7.63,7.63,0,0,0-1.466-1.06c-.106-.053-.23-.088-.194-.071.124.071.336-.318.265-.23a3.511,3.511,0,0,0,.212.724,26.922,26.922,0,0,1,1.378,3.709,5.09,5.09,0,0,1-.495,4.2,6.105,6.105,0,0,1-3.567,2.19,17.326,17.326,0,0,1-3.956.671,19.961,19.961,0,0,1-7.824-1.342,24.463,24.463,0,0,1-6.905-3.885c-1.024-.83-1.96-1.731-2.949-2.508a12.489,12.489,0,0,0-3.25-1.819c-2.349-.795-4.963-1.678-7.259-1.095a2.813,2.813,0,0,0-2.1,2.349,10.813,10.813,0,0,0,.159,3.673,14.146,14.146,0,0,0,3.6,6.517,61.568,61.568,0,0,0,5.139,5.757,17.463,17.463,0,0,0,6.411,3.938,24.855,24.855,0,0,0,15.047.389,30.278,30.278,0,0,0,13.3-7.312c1.872-1.748,3.868-3.479,5.086-5.651a5.85,5.85,0,0,0,.759-3.5c-.088-1.219-.954-2.225-1.166-3.691a4.041,4.041,0,0,1,1.784-3.673c1.095-.777,2.261-1.325,2.861-2.367a3.455,3.455,0,0,0,.124-3.391c-.477-1.148-1.13-2.3-1.7-3.461a27.01,27.01,0,0,1-2.419-7.47c-.547-2.631.194-5.281-.706-7.665a17.423,17.423,0,0,0-3.656-6.623,12.9,12.9,0,0,0-6.464-3.779,19.637,19.637,0,0,0-7.594-.283c-1.219.159-2.525.742-3.921.495a7.127,7.127,0,0,1-3.656-1.589,7.624,7.624,0,0,0-3.144-1.978,4.915,4.915,0,0,0-3.532.671,55,55,0,0,0-6.146,4.645,19.93,19.93,0,0,0-4.874,5.863,19.067,19.067,0,0,0-2.437,7.206,8.364,8.364,0,0,0,2.384,6.87c.883.918,1.943,1.589,2.967,2.49a1.293,1.293,0,0,1,.53,1.095,1.347,1.347,0,0,1-.883.848,5.8,5.8,0,0,1-2.031.265,9.546,9.546,0,0,1-7.064-3.3,19.9,19.9,0,0,1-3.5-7.029,51.472,51.472,0,0,1-2.119-15.435c-.035-5.192.23-10.384.177-15.541-.018-2.6-.124-5.157-.265-7.753a18.136,18.136,0,0,1,1.166-7.788,13.262,13.262,0,0,1,2.049-3.426,16.252,16.252,0,0,0,2.419-2.949c1.342-2.137,1.431-4.786,1.766-7.329l.795-7.735a20.826,20.826,0,0,1,.636-3.921,8.581,8.581,0,0,1,2.3-3.338,18.8,18.8,0,0,0,2.79-2.6,12.1,12.1,0,0,0,1.819-3.267,15.654,15.654,0,0,0,.653-3.726,9.56,9.56,0,0,1,1.325-3.815,14.535,14.535,0,0,1,5.9-5.281,15.659,15.659,0,0,1,3.762-1.342,8.046,8.046,0,0,1,4.044.018c2.543.742,4.945,1.572,7.453,2.172s5.033,1.2,7.559,1.642a39.628,39.628,0,0,0,7.647.565,28.11,28.11,0,0,0,3.815-.353,12.19,12.19,0,0,1,4.009-.106,17.1,17.1,0,0,1,7.347,2.985,26.288,26.288,0,0,1,5.669,5.528c1.678,2.119,2.508,4.751,3.356,7.135a32.573,32.573,0,0,0,3.426,6.835c.706,1.06,1.431,2.119,2.225,3.126.777,1.024,1.642,1.978,2.4,3.091a19.575,19.575,0,0,1,2.737,7.488,20.085,20.085,0,0,1-.247,7.947,18.008,18.008,0,0,1-3.638,7.1,51.724,51.724,0,0,1-5.545,5.581l-5.793,5.192L469.5,292.455,466.55,295l-1.5,1.254-.795.618c-.141.106-.283.194-.442.3.459.212-1.43.318-1.36-.583a3.009,3.009,0,0,1,.371-1.219q.238-.477.477-.9.5-.874,1.06-1.7c.724-1.095,1.5-2.155,2.314-3.179a63.383,63.383,0,0,1,11.038-11.144,33.776,33.776,0,0,1,6.746-4.15,17.309,17.309,0,0,1,7.859-1.7,15.143,15.143,0,0,1,7.594,2.773,32.557,32.557,0,0,1,5.863,5.351c1.748,1.978,3.32,4.044,4.874,6.164a48.807,48.807,0,0,1,4.027,6.8,43.43,43.43,0,0,1,2.808,7.4,24.242,24.242,0,0,1,.759,3.938c.141,1.342.159,2.631.3,3.868a25.369,25.369,0,0,0,2.137,7.206c.989,2.331,2.4,4.433,3.673,6.782a21.807,21.807,0,0,1,2.331,7.665,53.783,53.783,0,0,1,.177,7.894,43.19,43.19,0,0,1-.9,7.841,22.1,22.1,0,0,0-.194,7.47,29.826,29.826,0,0,0,.777,3.691,34.022,34.022,0,0,1,1.024,3.868,6.016,6.016,0,0,1-.088,2.243,6.731,6.731,0,0,1-.918,2.013,8.649,8.649,0,0,1-3.285,2.614,10.321,10.321,0,0,0-4.451,5.475c-.406,1.13-.459,2.349-.883,3.762a5.346,5.346,0,0,1-3.02,3.285,11.975,11.975,0,0,1-4.133.459c-1.289.018-2.561.053-3.832.141a72.67,72.67,0,0,0-7.594,1.042,14.246,14.246,0,0,0-6.57,3.091c-.9.795-1.625,1.819-2.649,2.808a9.362,9.362,0,0,1-3.638,2.119,17.225,17.225,0,0,1-8.089.353,27.221,27.221,0,0,1-7.576-2.561,24.255,24.255,0,0,1-6.464-4.751c-.954-.971-1.7-2.155-2.472-3.02a2.547,2.547,0,0,0-.971-.777c0,.018.088-.088,0,.053a2.334,2.334,0,0,0-.159.671c-.141,1.166-.106,2.543-.336,3.9a6.821,6.821,0,0,1-1.89,3.921,8.425,8.425,0,0,1-3.815,1.925,17.565,17.565,0,0,1-4.044.477,23.9,23.9,0,0,1-7.93-1.272,12.222,12.222,0,0,1-1.907-.865,3.775,3.775,0,0,1-1.713-1.766,2.034,2.034,0,0,1,.071-1.554,3.755,3.755,0,0,1,.653-1.042,7.591,7.591,0,0,1,1.625-1.413,16.59,16.59,0,0,1,7.647-2.737,12.5,12.5,0,0,1,7.983,1.784,13.816,13.816,0,0,1,5.281,6.217,10.351,10.351,0,0,1,.9,4.1,6.82,6.82,0,0,1-1.272,4.15c-1.819,2.384-4.521,3.408-7.047,4.168a44.065,44.065,0,0,1-7.806,1.36,132.145,132.145,0,0,1-15.63.3c-5.157-.106-10.437-.124-15.63-1.2a38.315,38.315,0,0,1-7.612-2.366c-2.366-1.219-4.574-2.508-6.852-3.779l-13.528-7.665c-2.243-1.272-4.5-2.614-6.729-3.8a75.746,75.746,0,0,0-7.117-2.879,18.676,18.676,0,0,1-3.638-1.766,24.618,24.618,0,0,1-3.179-2.473,15.68,15.68,0,0,1-4.627-6.693,14.629,14.629,0,0,1-.336-8.177,8.947,8.947,0,0,1,2.066-3.726,9.434,9.434,0,0,1,3.567-2.314,26.55,26.55,0,0,1,7.93-1.166c2.614-.106,5.245-.071,7.859.071a86.26,86.26,0,0,1,15.559,2.1c.318.088.653.177.989.3a3.132,3.132,0,0,1,.6.265c.9.071-.389,2.914-.424,1.854a12.883,12.883,0,0,1-2.119.106,36.567,36.567,0,0,1-3.956-.318,39.284,39.284,0,0,1-7.735-1.784,16.078,16.078,0,0,1-6.888-4.309c-1.642-2.013-3.338-3.9-5.139-5.74a26.39,26.39,0,0,0-5.81-4.821c-2.19-1.289-4.521-2.437-6.817-3.638a6.222,6.222,0,0,1-1.854-1.272,2.553,2.553,0,0,1-.212-2.649,13.215,13.215,0,0,1,2.578-3.232,22.927,22.927,0,0,0,4.15-6.27c1.148-2.3,2.314-4.645,3.373-6.958a47.471,47.471,0,0,0,2.543-7.241,59.428,59.428,0,0,1,2.808-7.347,56.6,56.6,0,0,1,3.638-6.958,13.867,13.867,0,0,0,1.625-3.338,16.36,16.36,0,0,0,.706-3.638,27.945,27.945,0,0,0-.194-3.779c-.124-1.289-.212-2.6-.283-3.9-.141-2.614-.159-5.21-.141-7.806a44.09,44.09,0,0,1,.6-7.877,7.974,7.974,0,0,1,1.748-3.779,10.911,10.911,0,0,1,3.338-2.367,9.293,9.293,0,0,0,1.536-.9.7.7,0,0,0,.212-.954c-.512-.777-1.872-1.272-2.914-2.349a2.3,2.3,0,0,1-.565-2.455,5.088,5.088,0,0,1,1.483-1.66c1.042-.848,2.137-1.554,3.232-2.278,2.19-1.413,4.415-2.773,6.711-4.009a26.815,26.815,0,0,0,6.075-4.556,11.634,11.634,0,0,1,1.519-1.36,4.5,4.5,0,0,1,2.066-.742,6.414,6.414,0,0,1,4.044,1.024c.583.336,1.13.742,1.66,1.095a4.976,4.976,0,0,0,1.466.812c.318.088.547-.177.724-.724a5.566,5.566,0,0,0,.159-1.748,17.876,17.876,0,0,0-2.155-7.153,18.237,18.237,0,0,0-4.786-5.757,9.389,9.389,0,0,0-6.941-1.89,37.723,37.723,0,0,0-7.347,2.137c-2.437.883-4.874,1.748-7.276,2.7a23.294,23.294,0,0,0-6.605,3.762,27.793,27.793,0,0,0-2.79,2.614,24.736,24.736,0,0,1-2.826,2.773,7.645,7.645,0,0,1-3.8,1.484,9.617,9.617,0,0,1-3.956-.653,6.993,6.993,0,0,0-3.62.053,9.973,9.973,0,0,0-3.285,1.731,56.324,56.324,0,0,0-5.651,5.245c-1.8,1.854-3.638,3.691-5.351,5.616a55.1,55.1,0,0,0-8.565,12.786,96.131,96.131,0,0,0-5.846,14.34c-.671,2.49-1.4,5-1.837,7.523a9.627,9.627,0,0,0,.018,3.762,8.927,8.927,0,0,0,1.66,3.355,21.955,21.955,0,0,0,5.987,4.768c2.225,1.307,4.45,2.667,6.782,3.762,1.166.547,2.384,1.024,3.532,1.642s2.261,1.307,3.338,2.031a45.965,45.965,0,0,1,6.111,4.839,38.469,38.469,0,0,1,4.98,5.987,63.6,63.6,0,0,1,4.1,6.623l-.159.088a63.149,63.149,0,0,0-4.133-6.57,39.042,39.042,0,0,0-5-5.916,45.6,45.6,0,0,0-6.093-4.768c-1.077-.706-2.172-1.378-3.32-2-1.13-.6-2.331-1.077-3.514-1.625-2.367-1.095-4.592-2.437-6.835-3.744a22.571,22.571,0,0,1-6.146-4.839,9.486,9.486,0,0,1-1.784-3.55,9.952,9.952,0,0,1-.053-3.956c.441-2.6,1.148-5.069,1.8-7.594a96.66,96.66,0,0,1,5.775-14.482,55.6,55.6,0,0,1,8.583-13.016c1.731-1.96,3.55-3.8,5.369-5.651a56.782,56.782,0,0,1,5.722-5.351,10.774,10.774,0,0,1,3.567-1.872,7.734,7.734,0,0,1,4.062-.071,8.546,8.546,0,0,0,3.638.618,6.869,6.869,0,0,0,3.356-1.325,22.77,22.77,0,0,0,2.7-2.684,29.575,29.575,0,0,1,2.861-2.7,24.2,24.2,0,0,1,6.835-3.921c2.419-.971,4.857-1.837,7.294-2.755a40.064,40.064,0,0,1,7.559-2.208,10.424,10.424,0,0,1,7.682,2.066,19.742,19.742,0,0,1,5.122,6.093,19.018,19.018,0,0,1,2.314,7.612,6.154,6.154,0,0,1-.194,2.1,2.456,2.456,0,0,1-.6,1.077,1.592,1.592,0,0,1-1.378.442,5.568,5.568,0,0,1-1.943-.989,17.508,17.508,0,0,0-1.589-1.042,5.424,5.424,0,0,0-3.356-.865,3.149,3.149,0,0,0-1.536.547,12.3,12.3,0,0,0-1.36,1.236,28.76,28.76,0,0,1-6.3,4.768c-2.261,1.236-4.45,2.6-6.623,3.991a37.515,37.515,0,0,0-3.108,2.208,4.675,4.675,0,0,0-1.13,1.2,1.07,1.07,0,0,0,.336,1.095,7.373,7.373,0,0,0,1.431,1.077,5.408,5.408,0,0,1,1.642,1.466,1.991,1.991,0,0,1-.442,2.543,9.553,9.553,0,0,1-1.784,1.095,9.935,9.935,0,0,0-2.967,2.084,6.613,6.613,0,0,0-1.43,3.214,41.658,41.658,0,0,0-.547,7.612c-.018,2.578.035,5.157.177,7.735.071,1.289.177,2.561.283,3.85a29.18,29.18,0,0,1,.212,3.974,17.392,17.392,0,0,1-.759,3.974,14.786,14.786,0,0,1-1.766,3.638,55.359,55.359,0,0,0-3.532,6.817,58.866,58.866,0,0,0-2.72,7.188,49.976,49.976,0,0,1-2.6,7.418c-1.1,2.4-2.208,4.7-3.373,7.047a24.343,24.343,0,0,1-4.38,6.64,13.091,13.091,0,0,0-2.278,2.79,1.031,1.031,0,0,0-.018,1.024,5.493,5.493,0,0,0,1.378.865c2.3,1.183,4.627,2.314,6.923,3.656a23.435,23.435,0,0,1,3.285,2.314c1.024.883,1.943,1.819,2.861,2.737,1.837,1.854,3.62,3.815,5.245,5.81a14.787,14.787,0,0,0,6.181,3.8,36.1,36.1,0,0,0,7.382,1.678,34.018,34.018,0,0,0,3.779.283,10.84,10.84,0,0,0,1.748-.071c.283-1.042-.53,1.466-.124,1.36-.018-.018-.177-.071-.3-.124-.265-.088-.565-.177-.865-.247a89.164,89.164,0,0,0-15.223-2.031c-2.561-.141-5.139-.177-7.7-.071a25.034,25.034,0,0,0-7.382,1.042,7.111,7.111,0,0,0-4.574,4.874,13,13,0,0,0,.3,7.153,13.946,13.946,0,0,0,4.133,5.952,24.084,24.084,0,0,0,2.949,2.3,18.181,18.181,0,0,0,3.338,1.607,74.077,74.077,0,0,1,7.276,2.967c2.349,1.236,4.539,2.561,6.8,3.85l13.528,7.665c2.243,1.254,4.521,2.578,6.764,3.726a37.911,37.911,0,0,0,7.206,2.225c4.98,1.024,10.137,1.06,15.329,1.166a132.167,132.167,0,0,0,15.435-.283,42.033,42.033,0,0,0,7.488-1.307c2.367-.689,4.786-1.713,6.146-3.532,1.36-1.784,1.113-4.415.177-6.587a12.225,12.225,0,0,0-4.627-5.457c-4.08-2.649-9.766-1.731-13.758.918a6.845,6.845,0,0,0-1.307,1.13c-.371.424-.512.848-.424.918a2.6,2.6,0,0,0,1.007.918,11.381,11.381,0,0,0,1.625.742A22.391,22.391,0,0,0,450.6,388.9c2.437-.035,5.086-.441,6.729-1.943a5.137,5.137,0,0,0,1.4-2.985c.212-1.2.177-2.437.336-3.85a4.061,4.061,0,0,1,.318-1.2,1.631,1.631,0,0,1,1.519-.971,2.484,2.484,0,0,1,1.378.547,5.722,5.722,0,0,1,.812.777c.936,1.077,1.589,2.1,2.455,2.985a22.278,22.278,0,0,0,6.022,4.415,24.98,24.98,0,0,0,7.1,2.4,15.385,15.385,0,0,0,7.294-.3,7.722,7.722,0,0,0,3.02-1.748c.848-.812,1.642-1.907,2.684-2.843a15.765,15.765,0,0,1,7.329-3.479,77.449,77.449,0,0,1,7.806-1.06c1.307-.106,2.631-.141,3.938-.159a11.035,11.035,0,0,0,3.55-.336,3.631,3.631,0,0,0,2.066-2.278c.336-1.06.424-2.473.9-3.779a12.038,12.038,0,0,1,5.157-6.34,7.335,7.335,0,0,0,2.773-2.137,4.326,4.326,0,0,0,.759-3.126,34.065,34.065,0,0,0-.971-3.638,26.674,26.674,0,0,1-.83-3.921,24.338,24.338,0,0,1,.212-8,40.865,40.865,0,0,0,.883-7.594,52.4,52.4,0,0,0-.159-7.647,20.2,20.2,0,0,0-2.155-7.117c-1.183-2.208-2.684-4.433-3.726-6.888a27.015,27.015,0,0,1-2.243-7.665c-.159-1.342-.177-2.649-.3-3.885a22.3,22.3,0,0,0-.706-3.691,43.475,43.475,0,0,0-2.684-7.135,57.088,57.088,0,0,0-8.618-12.627,31.108,31.108,0,0,0-5.563-5.122,13.771,13.771,0,0,0-6.817-2.543,15.8,15.8,0,0,0-7.188,1.536,32.672,32.672,0,0,0-6.482,3.956,63.009,63.009,0,0,0-10.826,10.861c-.795,1.007-1.554,2.031-2.261,3.091-.353.53-.706,1.06-1.007,1.607-.159.265-.3.547-.442.812a6.28,6.28,0,0,0-.247.6c.035-.406-1.342-.583-.671-.512l.353-.247.742-.583,1.484-1.219,2.949-2.525,11.656-10.3,5.81-5.175a49.107,49.107,0,0,0,5.422-5.422,16.858,16.858,0,0,0,3.426-6.623,18.755,18.755,0,0,0,.265-7.488,18.345,18.345,0,0,0-2.525-7.029c-.689-1.024-1.554-2-2.349-3.055-.812-1.042-1.536-2.119-2.261-3.214a32.766,32.766,0,0,1-3.5-7.047c-.865-2.472-1.625-4.892-3.2-6.888-3.055-3.991-7.276-7.435-12.327-8.142a11.039,11.039,0,0,0-3.726.088,29.137,29.137,0,0,1-3.921.353,41.381,41.381,0,0,1-7.824-.6c-2.578-.459-5.1-1.06-7.629-1.66s-5.033-1.483-7.453-2.19c-2.366-.653-4.945.194-7.188,1.236a13.7,13.7,0,0,0-5.563,4.945,8.63,8.63,0,0,0-1.219,3.479,17.157,17.157,0,0,1-.706,3.9,13.088,13.088,0,0,1-1.96,3.5,18.693,18.693,0,0,1-2.879,2.7,8.177,8.177,0,0,0-2.066,3,20.782,20.782,0,0,0-.6,3.726l-.812,7.735c-.141,1.289-.283,2.578-.53,3.885a10.373,10.373,0,0,1-1.36,3.762,17.15,17.15,0,0,1-2.508,3.055,12.691,12.691,0,0,0-1.943,3.214c-2.013,4.733-.689,10.084-.883,15.241.035,5.192-.247,10.384-.23,15.541a50.591,50.591,0,0,0,2.049,15.259,19.381,19.381,0,0,0,3.356,6.817,8.911,8.911,0,0,0,6.605,3.108,4.643,4.643,0,0,0,1.8-.23c.6-.247.689-.477.159-.936-.918-.812-2.066-1.536-2.985-2.508a8.96,8.96,0,0,1-2.525-7.329,19.582,19.582,0,0,1,2.525-7.418,20.554,20.554,0,0,1,5.016-6,56.565,56.565,0,0,1,6.234-4.715,5.509,5.509,0,0,1,3.921-.742,8.079,8.079,0,0,1,3.373,2.084A6.529,6.529,0,0,0,441,294.786c1.236.23,2.42-.3,3.744-.494a20.212,20.212,0,0,1,7.841.265,13.456,13.456,0,0,1,6.782,3.938,17.943,17.943,0,0,1,3.815,6.87,11.065,11.065,0,0,1,.53,3.938,19.6,19.6,0,0,0,.23,3.815,26.294,26.294,0,0,0,2.366,7.258c.547,1.166,1.219,2.261,1.731,3.514a4.225,4.225,0,0,1-.177,4.044c-.742,1.254-2.066,1.854-3.055,2.578a3.272,3.272,0,0,0-1.483,2.985c.124,1.113,1.042,2.261,1.183,3.673a6.605,6.605,0,0,1-.83,3.974c-1.325,2.384-3.355,4.1-5.228,5.881a31.049,31.049,0,0,1-13.634,7.541,25.852,25.852,0,0,1-15.559-.371,18.833,18.833,0,0,1-6.746-4.115,62.571,62.571,0,0,1-5.228-5.828,14.892,14.892,0,0,1-3.832-6.923,11.442,11.442,0,0,1-.177-4.044,3.788,3.788,0,0,1,2.79-3.126,8.919,8.919,0,0,1,4.1,0,26.115,26.115,0,0,1,3.815,1.1,14,14,0,0,1,3.514,1.96c1.06.83,2,1.731,2.985,2.508a23.575,23.575,0,0,0,6.605,3.691,18.988,18.988,0,0,0,7.4,1.254,15.549,15.549,0,0,0,3.691-.636,5.218,5.218,0,0,0,2.949-1.766,4,4,0,0,0,.318-3.3,29.7,29.7,0,0,0-1.342-3.567,3.476,3.476,0,0,1-.3-1.148c-.106-.247.371-.971.83-.883a1.5,1.5,0,0,1,.742.194,10.794,10.794,0,0,1,1.678,1.2L454.524,332a3.167,3.167,0,0,0,.618.406c-.071-.212-.724.583-.477.371a1.637,1.637,0,0,0-.124-.336c-.495-1.077-1.219-2.208-1.837-3.355a12.409,12.409,0,0,1-1.536-3.8,1.807,1.807,0,0,1,.336-1.36,1.731,1.731,0,0,1,1.307-.53,6.855,6.855,0,0,1,2.084.353c.636.194,1.272.406,1.872.6a6.554,6.554,0,0,0,.865.247c.124.194.283-.371-.283.477.088.459.018.106-.088.088-.883-.759-2.049-1.483-3.055-2.419a5.042,5.042,0,0,1-.724-.848,1.535,1.535,0,0,1-.194-1.519,1.748,1.748,0,0,1,1.148-.812c.353-.106.653-.177.918-.265s.406-.212.388-.23c.018,0,.018-.018-.141-.247-.336-.389-.9-.812-1.378-1.289A5.563,5.563,0,0,1,452.4,313.7a11.222,11.222,0,0,1,.689-4.027c.194-.618.442-1.254.565-1.8a1.448,1.448,0,0,0,.053-.318c-.071-.106.124.265.23.23.141-.018-.141.053-.353.23-.918.706-1.766,1.925-3.391,2.349a2.636,2.636,0,0,1-2.349-.689,6.131,6.131,0,0,1-1.272-1.748c-.318-.6-.565-1.236-.83-1.784a2.113,2.113,0,0,0-.194-.353c-.053-.194-.194.124.512-.018.283-.283.088-.106.124-.018a2.679,2.679,0,0,0-.035.406c-.018,1.219.106,2.525.141,3.832a15.75,15.75,0,0,1-.035,2.031,3.521,3.521,0,0,1-.3,1.183,1.118,1.118,0,0,1-.865.636,1.3,1.3,0,0,1-.9-.265,6.267,6.267,0,0,1-1.413-1.66c-.371-.547-.706-1.113-1.06-1.66-.671-1.113-1.342-2.208-2.084-3.214a8.029,8.029,0,0,0-1.183-1.342,1.74,1.74,0,0,0-.583-.371.357.357,0,0,0-.353.053,3.391,3.391,0,0,0-.848,2.879,3.5,3.5,0,0,0,2.013,2.437c.53.3,1.095.565,1.7.848a5.87,5.87,0,0,1,.971.565,1.366,1.366,0,0,1,.53.83,1.109,1.109,0,0,1-.442,1.042,5.306,5.306,0,0,1-2.137.759c-.671.124-1.307.212-1.96.3-.636.088-1.289.177-1.854.3a2.948,2.948,0,0,0-.353.106c-.177-.018.088.247.088-.53-.247-.406-.106-.141,0-.141l.406.159c1.219.441,2.437.971,3.638,1.5a6.739,6.739,0,0,1,1.89,1.113,1.511,1.511,0,0,1,.424.777,1.886,1.886,0,0,1-.018.777,3.433,3.433,0,0,1-.53,1.113,15.929,15.929,0,0,1-2.9,2.879c-1.024.83-2.084,1.589-3.108,2.366l-.742.583a1.906,1.906,0,0,0-.265.247c.424.088-1.148-1.748-.636-.989.459-.194,1.095-.565,1.678-.848a13.67,13.67,0,0,1,3.85-1.378,5.581,5.581,0,0,1,2.225.053,3.968,3.968,0,0,1,2,1.219,7.423,7.423,0,0,1,1.66,3.938,5.272,5.272,0,0,1-1.077,4.256,6.454,6.454,0,0,1-3.921,1.819,15.774,15.774,0,0,1-4.08,0,17.1,17.1,0,0,1-7.47-3.038c-1.095-.759-2.137-1.519-3.179-2.367-1.024-.83-1.978-1.837-2.879-2.649A7.115,7.115,0,0,0,419.1,324.7a7.2,7.2,0,0,0-1.748-.247,10.883,10.883,0,0,1-2.066-.141,7.894,7.894,0,0,1-3.779-1.978,15.923,15.923,0,0,1-2.525-3.214,76.067,76.067,0,0,1-3.9-6.835,14.26,14.26,0,0,1-1.183-3.9,11.268,11.268,0,0,1,.3-4.115,37.867,37.867,0,0,0,.848-7.576,24.994,24.994,0,0,0-.9-7.418,2.28,2.28,0,0,0-.6-1.007c.053-.088-.495.265-.83.742-.724.954-1.4,2.1-2.066,3.2a37.864,37.864,0,0,0-3.55,6.729,10.394,10.394,0,0,0-.618,3.567,6.909,6.909,0,0,0,1.007,3.373c1.183,2.225,2.6,4.45,3.956,6.605.689,1.077,1.43,2.137,2.172,3.2a16.116,16.116,0,0,1,2.049,3.5,9.632,9.632,0,0,1,.565,4.133,17.953,17.953,0,0,0-.388,3.779,18.51,18.51,0,0,0,.441,3.709c.283,1.2.742,2.42,1.113,3.673a45.945,45.945,0,0,1,1.625,7.7,45.035,45.035,0,0,1,.353,7.877c-.053,1.325-.194,2.631-.371,3.938a24.344,24.344,0,0,0-.424,3.726,3.239,3.239,0,0,0,1.731,2.6,10.2,10.2,0,0,0,3.55.759,7.088,7.088,0,0,1,3.921,1.448,6.459,6.459,0,0,1,2.084,3.673c.583,2.72-.177,5.457.088,7.771a1.518,1.518,0,0,0,.671,1.166.765.765,0,0,0,.565.088,6.8,6.8,0,0,0,.865-.212c1.254-.353,2.561-.636,3.85-.865,1.307-.212,2.6-.353,3.9-.459a17.9,17.9,0,0,1,4.009,0,19.524,19.524,0,0,1,7.435,2.826,34.593,34.593,0,0,1,6.2,4.874,27.3,27.3,0,0,1,4.857,6.234,25.359,25.359,0,0,1,2.949,15.347,28.839,28.839,0,0,1-6.111,14.393,23.644,23.644,0,0,1-13.122,8.389,37.572,37.572,0,0,1-7.806.936,46.569,46.569,0,0,1-7.841-.159,42.629,42.629,0,0,0-15.329.388,11.957,11.957,0,0,1-4.009.3,3.944,3.944,0,0,1-3-2.843,20.578,20.578,0,0,1-.318-3.956,24.7,24.7,0,0,0-.389-3.8,24.047,24.047,0,0,0-1.007-3.673,31.109,31.109,0,0,0-1.784-3.373l-3.921-6.711a55.609,55.609,0,0,0-4.238-6.446,7.081,7.081,0,0,0-3.073-2.013,20.93,20.93,0,0,0-3.779-.547,11.429,11.429,0,0,1-6.764-3.921c-1.748-1.943-3.373-3.938-5.086-5.9-1.7-1.96-3.373-3.938-5.139-5.81a16.158,16.158,0,0,0-1.378-1.325,3.173,3.173,0,0,0-1.713-.53,27.958,27.958,0,0,0-3.85-.088,90.134,90.134,0,0,0-15.365,2,64.047,64.047,0,0,0-7.47,2.066,21.326,21.326,0,0,0-6.782,3.567,5.249,5.249,0,0,0-1.13,1.5l-.989,1.678-1.978,3.356-3.921,6.711-15.736,26.827c-10.6,17.82-21.069,35.728-32.478,53.035-2.914,4.292-6.093,8.389-9.078,12.627s-5.916,8.512-8.777,12.839q-4.265,6.49-8.353,13.1c-2.755,4.4-5.3,8.9-8.142,13.263Z" transform="translate(-235.39 -215.928)" fill="#fff"/>
    </g>
    <g id="Group_2" data-name="Group 2" transform="translate(309.771 664.053)">
      <path id="Path_2" data-name="Path 2" d="M268.94,469.67" transform="translate(-268.94 -469.67)" fill="none"/>
    </g>
    <g id="Group_3" data-name="Group 3" transform="translate(215.641 526.271)">
      <path id="Path_3" data-name="Path 3" d="M250.661,394.1a20.773,20.773,0,0,0-3.55,7.294,29.728,29.728,0,0,0-1.077,8.071,20.509,20.509,0,0,0,.353,4.044,14.529,14.529,0,0,0,1.4,3.779,45.368,45.368,0,0,0,4.556,6.764A162.926,162.926,0,0,0,263.2,436.329c1.925,1.943,3.885,3.832,5.881,5.722,1.978,1.89,4.027,3.709,5.881,5.793a20.932,20.932,0,0,1,4.309,7.135,28.569,28.569,0,0,1,1.678,8.159,21.379,21.379,0,0,1-1.166,8.283,22.724,22.724,0,0,1-4.38,7.117c-1.854,2.031-4.239,4.009-7.259,4.274-3.055.194-5.7-1.572-7.665-3.5-4.009-3.991-6.517-9.06-8.583-14.164a74.933,74.933,0,0,1-4.256-15.983,79.193,79.193,0,0,1-.583-16.53,43.425,43.425,0,0,1,4.327-16.018,37.714,37.714,0,0,1,10.543-12.857,47.131,47.131,0,0,1,14.853-7.435,119.754,119.754,0,0,1,16.107-3.762,91.308,91.308,0,0,1,32.92,1.378c10.72,2.455,21.352,5.386,31.418,9.961a96.13,96.13,0,0,1,27.321,18.332c1.024.936,1.978,1.925,2.9,2.932.936,1.024,1.907,1.978,2.773,3.073a31.091,31.091,0,0,1,4.362,7.082,29.257,29.257,0,0,1,2.19,16.318,31.634,31.634,0,0,1-6.5,15.117,21.167,21.167,0,0,1-2.967,2.932,33.556,33.556,0,0,1-3.461,2.3,30.988,30.988,0,0,1-7.47,3.585,12.527,12.527,0,0,1-8.265-.3,35.481,35.481,0,0,1-7.064-4.309c-4.4-3.3-8.495-6.976-12.557-10.649-4.044-3.691-7.983-7.506-12.239-10.932-2.119-1.713-4.309-3.355-6.534-4.927a34.126,34.126,0,0,0-7.011-4.062,9.465,9.465,0,0,0-7.682.265,8.207,8.207,0,0,0-4.433,6.128,3.773,3.773,0,0,0,.742,3.532,20.335,20.335,0,0,0,3.161,2.455,51.834,51.834,0,0,1,6.446,5.192,42.2,42.2,0,0,1,9.625,13.4,32.9,32.9,0,0,1,2.455,7.947,23.491,23.491,0,0,1,.353,4.186,10.762,10.762,0,0,1-.989,4.15,63.833,63.833,0,0,1-4.1,7.206l-4.45,6.923c-3,4.592-6.075,9.131-9.29,13.581s-6.517,8.848-10.173,12.981c-1.854,2.049-3.726,4.027-5.634,6.022a40.988,40.988,0,0,1-6.234,5.563,9.133,9.133,0,0,1-4.1,1.554,13.046,13.046,0,0,1-4.309-.212,31.565,31.565,0,0,1-7.841-2.985c-4.91-2.561-9.537-5.51-14.2-8.389-2.331-1.43-4.645-2.967-6.905-4.468a8.517,8.517,0,0,0-3.391-1.572,10.505,10.505,0,0,0-3.779.212,17.1,17.1,0,0,0-6.835,3.726,39.419,39.419,0,0,0-5.545,5.828,148.648,148.648,0,0,0-9.166,13.51,67.271,67.271,0,0,0-7.135,14.535,35.8,35.8,0,0,0-1.642,15.842c.636,5.333,2.155,10.667,5.687,14.623a21.444,21.444,0,0,0,13.793,6.923,15.385,15.385,0,0,0,7.629-1.113,12.63,12.63,0,0,0,5.581-5.192,57.493,57.493,0,0,1,23.966-22.482,37.7,37.7,0,0,1,7.947-2.72,36.992,36.992,0,0,1,8.354-.777,49.778,49.778,0,0,1,16.3,3.338c5.139,1.96,10.349,3.974,14.994,7.135,4.592,3.179,8.689,6.746,13.175,9.872,4.433,3.2,9.007,6.146,13.652,9.06,4.645,2.9,9.254,5.863,14.111,8.265a84.519,84.519,0,0,0,15.276,5.581,91.75,91.75,0,0,0,16.054,2.808,42.446,42.446,0,0,0,8.071-.053,10.283,10.283,0,0,0,3.691-1.024,1.451,1.451,0,0,0,.848-1.13,2.6,2.6,0,0,0-.636-1.5c-1.607-2.013-3.85-3.744-5.775-5.7a53.9,53.9,0,0,1-5.457-6.234c-1.66-2.225-3.055-4.609-4.468-6.941s-2.879-4.645-4.415-6.905c-3.055-4.521-6.429-8.813-9.855-13.1-6.782-8.583-13.952-16.919-22.517-23.754a114.263,114.263,0,0,0-28.133-16.689l.071-.159a113.693,113.693,0,0,1,28.4,16.424c8.671,6.764,16.018,15.082,22.835,23.63,3.444,4.256,6.87,8.565,9.978,13.087,1.572,2.261,3.055,4.574,4.486,6.905,1.448,2.331,2.843,4.68,4.468,6.835a51.566,51.566,0,0,0,5.386,6.075c.989.936,1.96,1.872,2.985,2.79a25.187,25.187,0,0,1,2.949,3.02,3.582,3.582,0,0,1,.865,2.243,2.609,2.609,0,0,1-1.413,2.1,11.059,11.059,0,0,1-4.15,1.219,43.843,43.843,0,0,1-8.336.106,92.472,92.472,0,0,1-16.3-2.755,84.438,84.438,0,0,1-15.577-5.581,163.365,163.365,0,0,1-14.305-8.248c-4.662-2.879-9.307-5.846-13.793-9.042-4.521-3.126-8.76-6.711-13.193-9.766-4.433-3.038-9.537-5.016-14.605-6.958a48.592,48.592,0,0,0-15.736-3.25,35.491,35.491,0,0,0-7.965.742A36.235,36.235,0,0,0,275,571.8a51.175,51.175,0,0,0-13.21,9.2,56.039,56.039,0,0,0-5.457,5.952c-1.678,2.1-3.091,4.4-4.627,6.711a20.479,20.479,0,0,1-2.667,3.338,12.3,12.3,0,0,1-3.638,2.437,17.189,17.189,0,0,1-8.459,1.254,23.086,23.086,0,0,1-14.906-7.506,22.727,22.727,0,0,1-4.256-7.347,38.793,38.793,0,0,1-1.837-8.177,37.646,37.646,0,0,1,1.713-16.566,69.379,69.379,0,0,1,7.312-14.888,156.187,156.187,0,0,1,9.29-13.652,42.393,42.393,0,0,1,5.775-6.04,18.611,18.611,0,0,1,7.488-4.044,12.158,12.158,0,0,1,4.38-.23,9.958,9.958,0,0,1,4.009,1.819c2.314,1.519,4.556,3.02,6.87,4.468,4.645,2.9,9.237,5.881,14.04,8.406a30.317,30.317,0,0,0,7.453,2.9,11.428,11.428,0,0,0,3.868.212,7.8,7.8,0,0,0,3.514-1.325,39.736,39.736,0,0,0,6.022-5.334c1.89-1.96,3.8-3.938,5.634-5.952a158.853,158.853,0,0,0,10.173-12.822c3.214-4.415,6.3-8.936,9.342-13.493l4.486-6.87a62.62,62.62,0,0,0,4.062-7.047,9.247,9.247,0,0,0,.936-3.779,23.248,23.248,0,0,0-.318-3.991,33.146,33.146,0,0,0-2.349-7.735,41.234,41.234,0,0,0-9.378-13.157,50.532,50.532,0,0,0-6.322-5.139,20.585,20.585,0,0,1-3.285-2.6,3.876,3.876,0,0,1-.989-2.013,6.822,6.822,0,0,1,.088-2.172,9.01,9.01,0,0,1,4.874-6.658,10.213,10.213,0,0,1,8.265-.265,34.816,34.816,0,0,1,7.153,4.186q3.364,2.384,6.552,4.98c4.274,3.462,8.195,7.312,12.221,11.02a158.545,158.545,0,0,0,12.5,10.6,34.964,34.964,0,0,0,6.941,4.2,11.868,11.868,0,0,0,7.859.23,29.546,29.546,0,0,0,7.276-3.55,30.343,30.343,0,0,0,3.373-2.261,20.724,20.724,0,0,0,2.861-2.843,30.967,30.967,0,0,0,6.252-14.764,28.39,28.39,0,0,0-2.208-15.806,29.209,29.209,0,0,0-4.274-6.835c-.83-1.042-1.819-2.013-2.755-3-.918-1.007-1.872-1.978-2.879-2.9a94.5,94.5,0,0,0-27.091-17.979c-9.943-4.45-20.575-7.347-31.206-9.713a89.345,89.345,0,0,0-32.407-1.2,120.336,120.336,0,0,0-15.859,3.779,46.6,46.6,0,0,0-14.411,7.135,35.936,35.936,0,0,0-10.19,12.292,42.1,42.1,0,0,0-4.256,15.488,65.6,65.6,0,0,0-.177,8.124,68.716,68.716,0,0,0,.671,8.106,73.446,73.446,0,0,0,4.1,15.736c2,5.016,4.468,10,8.248,13.793,1.854,1.854,4.256,3.373,6.8,3.214,2.543-.194,4.786-1.943,6.552-3.885a21.99,21.99,0,0,0,4.221-6.764,19.9,19.9,0,0,0,1.13-7.877c-.318-5.333-2-10.791-5.687-14.747-1.784-2.031-3.815-3.868-5.793-5.757q-2.993-2.835-5.846-5.793a156.87,156.87,0,0,1-10.755-12.468,46.108,46.108,0,0,1-4.539-6.905,15.258,15.258,0,0,1-1.4-3.921,19.168,19.168,0,0,1-.3-4.133,30.381,30.381,0,0,1,1.183-8.159,20.839,20.839,0,0,1,3.673-7.347Z" transform="translate(-215.641 -391.654)" fill="#fff"/>
    </g>
    <path id="Path_4" data-name="Path 4" d="M400.336,541.9c-3.691,2.6-8.689,5.934-14.87,9.431a183.77,183.77,0,0,1-31.312,13.952c-8.76,2.985-16.018,5.457-26.173,6.817-8.23,1.095-15.488.742-29.652-.053-15.135-.83-26.1-1.484-40.284-4.733-12.38-2.843-18.685-4.345-24.319-8.883-2.932-2.349-15.329-12.045-14.393-27.5.583-9.678,6.287-19.992,15.294-24,12.592-5.616,28.646,2.4,33.4,4.786,5.722,2.861,9.254,5.916,16.407,6.658,5.3.547,9.766-.442,13.917-1.378,8.548-1.907,10.755-4.239,16.159-5.846,7.594-2.26,15.7-2.278,28.593.759,15.382,3.62,24.743,10.755,27.074,11.8,8.958,3.994,25.83,14.549,51.714,27.621s29.128,6.237,30.612,7.1" transform="translate(2.789 221.427)" fill="none" stroke="#fff" stroke-miterlimit="10" stroke-width="2"/>
    <rect id="Rectangle_2" data-name="Rectangle 2" width="333.663" height="127.616" transform="translate(308.122 722.219) rotate(-10.597)" fill="none"/>
  </g>
</svg>
